# xmcd
#
# Track frame offsets:
#	150
#	16083
#	31582
#	45115
#	63147
#	82591
#	95966
#	112567
#	129934
#	143544
#	164855
#	180304
#	194554
#	208526
#	228724
#	244438
#	260804
#
# Disc length: 3642 seconds
#
# Revision: 0
# Processed by: cddbd v1.5.1PL0 Copyright (c) Steve Scherf et al.
# Submitted via: audiograbber 1.83.01
#
DISCID=d60e3811
DTITLE=Scot Joplin - Scot Joplin - Best of CD 2
DYEAR=1900
DGENRE=
TTITLE0=Rose Leaf Rag
TTITLE1=Muskrat Ramble
TTITLE2=Euphonic Sounds
TTITLE3=Sunflower Slow Rag
TTITLE4=Country Club
TTITLE5=Stoptime Rag
TTITLE6=Gladiolus Rag
TTITLE7=Paragon Rag
TTITLE8=Searchlight Rag
TTITLE9=Fig Leaf Rag
TTITLE10=Something Doing
TTITLE11=Magnetic Rag
TTITLE12=Sugar Cane
TTITLE13=Heliotrope Rag
TTITLE14=Swipesy
TTITLE15=Solace
TTITLE16=Maple Leaf Rag (fast version)
EXTD=
EXTT0=
EXTT1=
EXTT2=
EXTT3=
EXTT4=
EXTT5=
EXTT6=
EXTT7=
EXTT8=
EXTT9=
EXTT10=
EXTT11=
EXTT12=
EXTT13=
EXTT14=
EXTT15=
EXTT16=
PLAYORDER=
